<svg xmlns="http://www.w3.org/2000/svg" xmlns:xlink="http://www.w3.org/1999/xlink" width="300" zoomAndPan="magnify" viewBox="0 0 224.87999 225" height="300" preserveAspectRatio="xMidYMid meet" version="1.0"><defs><g/><clipPath id="dc61797784"><path d="M 57.226562 53.207031 L 190.816406 53.207031 L 190.816406 186.796875 L 57.226562 186.796875 Z M 57.226562 53.207031 " clip-rule="nonzero"/></clipPath><clipPath id="bfd02c8e6a"><path d="M 79.070312 67 L 169 67 L 169 174 L 79.070312 174 Z M 79.070312 67 " clip-rule="nonzero"/></clipPath></defs><g clip-path="url(#dc61797784)"><path fill="#ffecc0" d="M 124.023438 53.207031 C 87.132812 53.207031 57.226562 83.113281 57.226562 120.003906 C 57.226562 156.894531 87.132812 186.796875 124.023438 186.796875 C 160.910156 186.796875 190.816406 156.894531 190.816406 120.003906 C 190.816406 83.113281 160.910156 53.207031 124.023438 53.207031 " fill-opacity="1" fill-rule="nonzero"/></g><g clip-path="url(#bfd02c8e6a)"><path fill="#ffffff" d="M 85.484375 84.289062 C 84.710938 81.0625 85.496094 69.46875 89.71875 67.597656 C 93.269531 66.023438 97.253906 74.28125 100.054688 74.960938 C 102.117188 75.457031 105.707031 72.941406 108.324219 72.78125 C 114.242188 72.421875 119.582031 73.988281 125.386719 74.484375 C 131.925781 75.046875 137.007812 72.855469 142.867188 70.390625 C 144.183594 69.839844 149.269531 66.964844 150.667969 67.597656 C 152.332031 68.351562 152.273438 72.078125 152.070312 73.382812 C 151.320312 78.285156 145.132812 82.789062 145.003906 87.671875 C 144.960938 89.234375 146.691406 90.113281 147.527344 91.226562 C 149.335938 93.632812 150.933594 95.796875 151.566406 98.832031 C 152.742188 104.46875 153.789062 110.070312 153.519531 115.863281 C 153.355469 119.378906 151.664062 122.714844 151.902344 126.246094 C 152.277344 131.820312 157.75 137.195312 161.046875 141.25 C 165.730469 147.011719 168.84375 153.824219 168.863281 161.304688 C 168.867188 163.433594 169.082031 169.753906 167.269531 171.46875 C 166.492188 172.203125 160 172.160156 158.878906 172.175781 C 155.105469 172.226562 151.300781 171.863281 147.539062 172 C 143.085938 172.160156 138.667969 172.550781 134.199219 172.566406 C 123.183594 172.597656 114.238281 174.058594 103.238281 173.710938 C 99.226562 173.582031 90.375 172.410156 87.285156 171.335938 C 84.632812 170.417969 82.273438 157.847656 81.636719 153.027344 C 80.765625 146.476562 79.910156 141.242188 79.859375 134.582031 C 79.84375 132.472656 79.625 130.199219 79.902344 128.105469 C 80.117188 126.453125 80.839844 124.941406 80.792969 123.246094 C 80.761719 122.039062 80.136719 120.789062 79.894531 119.613281 C 79.492188 117.671875 79.429688 115.503906 79.320312 113.53125 C 79.082031 109.160156 80.042969 104.96875 80.613281 100.664062 C 81.085938 97.125 82.359375 86.773438 85.484375 84.289062 Z M 85.484375 84.289062 " fill-opacity="1" fill-rule="evenodd"/></g><path fill="#a88ac8" d="M 150.351562 95.523438 C 150.132812 102.308594 141.425781 100.65625 136.640625 102.65625 C 134.382812 103.601562 131.988281 104.359375 129.789062 105.433594 C 128.160156 106.230469 126.523438 107.425781 124.707031 107.742188 C 119.628906 108.632812 114.515625 106.949219 109.523438 106.207031 C 103.203125 105.269531 96.742188 105.855469 90.386719 105.902344 C 89.035156 105.910156 87.179688 106.121094 86 105.28125 C 85.480469 104.910156 84.753906 103.125 84.050781 103.273438 C 83.484375 103.390625 83.34375 104.367188 83.25 104.816406 C 82.910156 106.492188 82.734375 108.59375 83.09375 110.285156 C 83.675781 113.046875 88.125 115.175781 90.214844 116.589844 C 97.273438 121.359375 105.488281 123.726562 113.902344 121.765625 C 115.332031 121.433594 116.914062 121.136719 118.1875 120.363281 C 121.613281 118.292969 121.683594 111.964844 126.128906 111.371094 C 128.554688 111.050781 129.445312 114.792969 130.996094 116.171875 C 134.011719 118.847656 139.730469 117.515625 142.753906 115.363281 C 145.753906 113.226562 152.492188 108.074219 153.425781 104.464844 C 154.015625 102.183594 155.160156 96.472656 152.054688 95.734375 C 151.609375 95.628906 150.777344 95.335938 150.351562 95.523438 Z M 150.351562 95.523438 " fill-opacity="1" fill-rule="evenodd"/><path fill="#a88ac8" d="M 126.871094 126.648438 C 124.660156 125.394531 123.171875 124.054688 122.667969 122.332031 C 122.339844 121.214844 123.40625 120.46875 124.191406 119.941406 C 126.667969 118.28125 132.820312 117.996094 130.808594 122.609375 C 130.484375 123.347656 129.945312 123.917969 129.46875 124.558594 C 128.734375 125.546875 127.984375 126.164062 126.871094 126.648438 Z M 126.871094 126.648438 " fill-opacity="1" fill-rule="evenodd"/><path fill="#a88ac8" d="M 126.4375 126.570312 C 126.246094 127.160156 125.617188 128.933594 124.847656 129.789062 C 124.148438 130.566406 123.046875 131.125 122.148438 131.433594 C 121.128906 131.789062 120.042969 131.828125 118.851562 131.824219 C 117.085938 131.824219 115.289062 131.203125 113.773438 130.171875 C 113.558594 130.027344 113.265625 130.085938 113.121094 130.296875 C 112.976562 130.511719 113.035156 130.800781 113.246094 130.945312 C 114.921875 132.078125 116.902344 132.757812 118.851562 132.761719 C 120.152344 132.761719 121.339844 132.703125 122.457031 132.316406 C 123.484375 131.960938 124.738281 131.304688 125.539062 130.414062 C 126.394531 129.46875 127.117188 127.507812 127.324219 126.855469 C 127.40625 126.609375 127.269531 126.347656 127.023438 126.269531 C 126.777344 126.191406 126.515625 126.324219 126.4375 126.570312 Z M 126.4375 126.570312 " fill-opacity="1" fill-rule="evenodd"/><path fill="#a88ac8" d="M 126.414062 126.6875 C 126.5625 128.601562 127.78125 130.152344 129.21875 130.992188 C 130.199219 131.570312 131.277344 131.8125 132.1875 131.644531 C 135.449219 131.054688 136.828125 129.46875 138.683594 126.941406 C 138.835938 126.734375 138.789062 126.441406 138.582031 126.292969 C 138.375 126.136719 138.082031 126.183594 137.929688 126.390625 C 136.234375 128.699219 135 130.183594 132.023438 130.726562 C 131.304688 130.855469 130.460938 130.640625 129.691406 130.1875 C 128.496094 129.488281 127.46875 128.207031 127.34375 126.613281 C 127.324219 126.355469 127.097656 126.164062 126.839844 126.183594 C 126.585938 126.203125 126.390625 126.429688 126.414062 126.6875 Z M 126.414062 126.6875 " fill-opacity="1" fill-rule="evenodd"/><g fill="#a88ac8" fill-opacity="1"><g transform="translate(60.987095, 110.50325)"><g><path d="M -17.203125 -32.5625 C -16.992188 -33.21875 -16.617188 -33.679688 -16.078125 -33.953125 C -15.546875 -34.234375 -14.941406 -34.265625 -14.265625 -34.046875 L 6.578125 -27.484375 C 7.234375 -27.273438 7.6875 -26.921875 7.9375 -26.421875 C 8.1875 -25.929688 8.21875 -25.382812 8.03125 -24.78125 C 7.832031 -24.164062 7.492188 -23.738281 7.015625 -23.5 C 6.535156 -23.269531 5.96875 -23.257812 5.3125 -23.46875 L -9.1875 -28.03125 L 0.25 -18.484375 C 0.675781 -18.035156 0.960938 -17.609375 1.109375 -17.203125 C 1.253906 -16.796875 1.253906 -16.367188 1.109375 -15.921875 C 0.972656 -15.472656 0.734375 -15.125 0.390625 -14.875 C 0.046875 -14.625 -0.429688 -14.445312 -1.046875 -14.34375 L -14.109375 -11.828125 L 0.21875 -7.3125 C 0.84375 -7.113281 1.289062 -6.773438 1.5625 -6.296875 C 1.84375 -5.816406 1.882812 -5.265625 1.6875 -4.640625 C 1.5 -4.035156 1.160156 -3.613281 0.671875 -3.375 C 0.191406 -3.144531 -0.375 -3.132812 -1.03125 -3.34375 L -21.875 -9.90625 C -22.550781 -10.125 -23.03125 -10.488281 -23.3125 -11 C -23.601562 -11.507812 -23.648438 -12.09375 -23.453125 -12.75 C -23.160156 -13.664062 -22.425781 -14.222656 -21.25 -14.421875 L -3.90625 -17.546875 L -16.34375 -30.015625 C -17.195312 -30.847656 -17.484375 -31.695312 -17.203125 -32.5625 Z M -17.203125 -32.5625 "/></g></g></g><g fill="#a88ac8" fill-opacity="1"><g transform="translate(70.180414, 84.820599)"><g/></g></g><g fill="#a88ac8" fill-opacity="1"><g transform="translate(73.805701, 78.263101)"><g><path d="M 9.109375 -14.8125 C 9.421875 -15.082031 9.78125 -15.1875 10.1875 -15.125 C 10.59375 -15.070312 10.972656 -14.84375 11.328125 -14.4375 C 11.835938 -13.875 11.929688 -13.097656 11.609375 -12.109375 C 11.296875 -11.191406 10.835938 -10.273438 10.234375 -9.359375 C 9.640625 -8.441406 8.988281 -7.660156 8.28125 -7.015625 C 6.125 -5.085938 3.851562 -4.175781 1.46875 -4.28125 C -0.914062 -4.394531 -3.078125 -5.53125 -5.015625 -7.6875 C -6.242188 -9.0625 -7.0625 -10.523438 -7.46875 -12.078125 C -7.875 -13.628906 -7.835938 -15.144531 -7.359375 -16.625 C -6.890625 -18.113281 -6.023438 -19.421875 -4.765625 -20.546875 C -3.554688 -21.628906 -2.265625 -22.3125 -0.890625 -22.59375 C 0.472656 -22.875 1.835938 -22.75 3.203125 -22.21875 C 4.566406 -21.6875 5.84375 -20.765625 7.03125 -19.453125 C 7.738281 -18.660156 7.75 -17.953125 7.0625 -17.328125 L -1.046875 -10.0625 C 0.191406 -8.894531 1.378906 -8.285156 2.515625 -8.234375 C 3.648438 -8.179688 4.796875 -8.675781 5.953125 -9.71875 C 6.535156 -10.238281 6.984375 -10.769531 7.296875 -11.3125 C 7.617188 -11.863281 7.953125 -12.523438 8.296875 -13.296875 C 8.585938 -14.078125 8.859375 -14.582031 9.109375 -14.8125 Z M -2.515625 -18.21875 C -3.453125 -17.375 -3.9375 -16.40625 -3.96875 -15.3125 C -4 -14.226562 -3.570312 -13.09375 -2.6875 -11.90625 L 3.515625 -17.46875 C 2.472656 -18.550781 1.4375 -19.148438 0.40625 -19.265625 C -0.625 -19.390625 -1.597656 -19.039062 -2.515625 -18.21875 Z M -2.515625 -18.21875 "/></g></g></g><g fill="#a88ac8" fill-opacity="1"><g transform="translate(86.556713, 67.142121)"><g/></g></g><g fill="#a88ac8" fill-opacity="1"><g transform="translate(91.26424, 61.866499)"><g><path d="M 19.953125 -22.609375 C 21.890625 -22.972656 23.476562 -22.679688 24.71875 -21.734375 C 25.96875 -20.785156 26.835938 -19.03125 27.328125 -16.46875 L 29.015625 -7.546875 C 29.148438 -6.847656 29.039062 -6.269531 28.6875 -5.8125 C 28.34375 -5.351562 27.832031 -5.0625 27.15625 -4.9375 C 26.5 -4.8125 25.921875 -4.894531 25.421875 -5.1875 C 24.929688 -5.488281 24.617188 -5.988281 24.484375 -6.6875 L 22.796875 -15.609375 C 22.535156 -16.929688 22.117188 -17.828125 21.546875 -18.296875 C 20.972656 -18.773438 20.203125 -18.925781 19.234375 -18.75 C 18.046875 -18.519531 17.175781 -17.929688 16.625 -16.984375 C 16.070312 -16.046875 15.929688 -14.875 16.203125 -13.46875 L 17.734375 -5.390625 C 17.867188 -4.691406 17.765625 -4.113281 17.421875 -3.65625 C 17.078125 -3.207031 16.578125 -2.921875 15.921875 -2.796875 C 15.265625 -2.671875 14.679688 -2.753906 14.171875 -3.046875 C 13.660156 -3.335938 13.335938 -3.832031 13.203125 -4.53125 L 11.515625 -13.453125 C 11.253906 -14.773438 10.835938 -15.675781 10.265625 -16.15625 C 9.691406 -16.632812 8.925781 -16.785156 7.96875 -16.609375 C 6.78125 -16.378906 5.914062 -15.796875 5.375 -14.859375 C 4.84375 -13.921875 4.710938 -12.75 4.984375 -11.34375 L 6.515625 -3.265625 C 6.648438 -2.566406 6.535156 -1.988281 6.171875 -1.53125 C 5.816406 -1.070312 5.3125 -0.78125 4.65625 -0.65625 C 4 -0.53125 3.421875 -0.613281 2.921875 -0.90625 C 2.421875 -1.207031 2.101562 -1.707031 1.96875 -2.40625 L -0.703125 -16.4375 C -0.828125 -17.101562 -0.703125 -17.65625 -0.328125 -18.09375 C 0.0351562 -18.539062 0.546875 -18.828125 1.203125 -18.953125 C 1.835938 -19.078125 2.382812 -19.003906 2.84375 -18.734375 C 3.3125 -18.460938 3.609375 -18.003906 3.734375 -17.359375 L 3.890625 -16.484375 C 4.253906 -17.554688 4.851562 -18.429688 5.6875 -19.109375 C 6.53125 -19.796875 7.554688 -20.253906 8.765625 -20.484375 C 11.410156 -20.984375 13.398438 -20.210938 14.734375 -18.171875 C 15.066406 -19.273438 15.691406 -20.226562 16.609375 -21.03125 C 17.535156 -21.832031 18.648438 -22.359375 19.953125 -22.609375 Z M 19.953125 -22.609375 "/></g></g></g><g fill="#a88ac8" fill-opacity="1"><g transform="translate(119.304076, 57.717333)"><g/></g></g><g fill="#a88ac8" fill-opacity="1"><g transform="translate(126.79528, 57.875004)"><g><path d="M 17.34375 1.171875 C 17.738281 1.316406 18.003906 1.582031 18.140625 1.96875 C 18.273438 2.363281 18.25 2.816406 18.0625 3.328125 C 17.789062 4.035156 17.140625 4.472656 16.109375 4.640625 C 15.148438 4.785156 14.125 4.804688 13.03125 4.703125 C 11.945312 4.609375 10.957031 4.394531 10.0625 4.0625 C 7.34375 3.050781 5.476562 1.46875 4.46875 -0.6875 C 3.457031 -2.851562 3.457031 -5.300781 4.46875 -8.03125 C 5.113281 -9.757812 6.03125 -11.160156 7.21875 -12.234375 C 8.40625 -13.316406 9.765625 -13.992188 11.296875 -14.265625 C 12.828125 -14.535156 14.390625 -14.375 15.984375 -13.78125 C 17.503906 -13.21875 18.703125 -12.390625 19.578125 -11.296875 C 20.460938 -10.210938 20.988281 -8.941406 21.15625 -7.484375 C 21.320312 -6.035156 21.097656 -4.484375 20.484375 -2.828125 C 20.109375 -1.828125 19.488281 -1.488281 18.625 -1.8125 L 8.40625 -5.609375 C 7.957031 -3.960938 7.972656 -2.625 8.453125 -1.59375 C 8.941406 -0.570312 9.910156 0.207031 11.359375 0.75 C 12.097656 1.019531 12.785156 1.164062 13.421875 1.1875 C 14.054688 1.21875 14.789062 1.203125 15.625 1.140625 C 16.445312 1.046875 17.019531 1.054688 17.34375 1.171875 Z M 14.953125 -10.703125 C 13.765625 -11.140625 12.679688 -11.117188 11.703125 -10.640625 C 10.734375 -10.160156 9.921875 -9.253906 9.265625 -7.921875 L 17.09375 -5.015625 C 17.5625 -6.441406 17.609375 -7.640625 17.234375 -8.609375 C 16.859375 -9.578125 16.097656 -10.273438 14.953125 -10.703125 Z M 14.953125 -10.703125 "/></g></g></g><g fill="#a88ac8" fill-opacity="1"><g transform="translate(142.572432, 63.985959)"><g/></g></g><g fill="#a88ac8" fill-opacity="1"><g transform="translate(140.295576, 207.056892)"><g><path d="M 10.484375 -23.078125 C 9.359375 -22.953125 8.550781 -22.570312 8.0625 -21.9375 C 7.570312 -21.300781 7.351562 -20.40625 7.40625 -19.25 L 7.4375 -18.40625 L 10.578125 -18.546875 C 11.953125 -18.609375 12.664062 -18.0625 12.71875 -16.90625 C 12.769531 -15.75 12.109375 -15.140625 10.734375 -15.078125 L 7.59375 -14.9375 L 8.15625 -2.359375 C 8.1875 -1.648438 8 -1.097656 7.59375 -0.703125 C 7.1875 -0.316406 6.648438 -0.109375 5.984375 -0.078125 C 5.328125 -0.046875 4.765625 -0.203125 4.296875 -0.546875 C 3.835938 -0.898438 3.59375 -1.429688 3.5625 -2.140625 L 3 -14.71875 L 1.15625 -14.640625 C -0.226562 -14.578125 -0.945312 -15.125 -1 -16.28125 C -1.050781 -17.4375 -0.382812 -18.046875 1 -18.109375 L 2.84375 -18.1875 L 2.84375 -18.4375 C 2.738281 -20.75 3.257812 -22.585938 4.40625 -23.953125 C 5.5625 -25.328125 7.238281 -26.144531 9.4375 -26.40625 L 10.390625 -26.53125 C 11.378906 -26.644531 12.082031 -26.570312 12.5 -26.3125 C 12.914062 -26.050781 13.140625 -25.625 13.171875 -25.03125 C 13.222656 -23.976562 12.644531 -23.367188 11.4375 -23.203125 Z M 10.484375 -23.078125 "/></g></g></g><g fill="#a88ac8" fill-opacity="1"><g transform="translate(155.588682, 206.042468)"><g/></g></g><g fill="#a88ac8" fill-opacity="1"><g transform="translate(167.038188, 203.319552)"><g><path d="M 4.453125 -1.484375 C 3.828125 -1.242188 3.242188 -1.222656 2.703125 -1.421875 C 2.171875 -1.617188 1.773438 -2.050781 1.515625 -2.71875 L -3.59375 -16.015625 C -3.84375 -16.671875 -3.832031 -17.25 -3.5625 -17.75 C -3.300781 -18.257812 -2.859375 -18.632812 -2.234375 -18.875 C -1.609375 -19.113281 -1.019531 -19.132812 -0.46875 -18.9375 C 0.0703125 -18.75 0.46875 -18.328125 0.71875 -17.671875 L 5.828125 -4.375 C 6.085938 -3.707031 6.078125 -3.117188 5.796875 -2.609375 C 5.523438 -2.097656 5.078125 -1.722656 4.453125 -1.484375 Z M -3.40625 -21.9375 C -4.1875 -21.632812 -4.890625 -21.609375 -5.515625 -21.859375 C -6.140625 -22.109375 -6.582031 -22.570312 -6.84375 -23.25 C -7.101562 -23.9375 -7.082031 -24.578125 -6.78125 -25.171875 C -6.488281 -25.765625 -5.953125 -26.210938 -5.171875 -26.515625 C -4.410156 -26.804688 -3.710938 -26.832031 -3.078125 -26.59375 C -2.453125 -26.351562 -2.007812 -25.890625 -1.75 -25.203125 C -1.488281 -24.523438 -1.503906 -23.882812 -1.796875 -23.28125 C -2.085938 -22.675781 -2.625 -22.226562 -3.40625 -21.9375 Z M -3.40625 -21.9375 "/></g></g></g><g fill="#a88ac8" fill-opacity="1"><g transform="translate(177.401381, 199.219886)"><g/></g></g><g fill="#a88ac8" fill-opacity="1"><g transform="translate(188.653301, 193.132272)"><g><path d="M 11.078125 -14.65625 C 11.691406 -14.613281 12.191406 -14.382812 12.578125 -13.96875 C 12.941406 -13.5625 13.109375 -13.0625 13.078125 -12.46875 C 13.054688 -11.875 12.835938 -11.382812 12.421875 -11 C 11.960938 -10.59375 11.398438 -10.425781 10.734375 -10.5 L 3.015625 -11.265625 L 3.03125 -3.5 C 3.019531 -2.820312 2.800781 -2.289062 2.375 -1.90625 C 1.96875 -1.539062 1.46875 -1.367188 0.875 -1.390625 C 0.28125 -1.410156 -0.195312 -1.625 -0.5625 -2.03125 C -0.945312 -2.445312 -1.117188 -2.972656 -1.078125 -3.609375 L -1.046875 -11.578125 L -8.53125 -12.25 C -9.15625 -12.269531 -9.660156 -12.488281 -10.046875 -12.90625 C -10.429688 -13.320312 -10.601562 -13.820312 -10.5625 -14.40625 C -10.519531 -14.988281 -10.300781 -15.460938 -9.90625 -15.828125 C -9.46875 -16.222656 -8.914062 -16.394531 -8.25 -16.34375 L -0.96875 -15.65625 L -0.984375 -22.953125 C -0.960938 -23.628906 -0.734375 -24.164062 -0.296875 -24.5625 C 0.117188 -24.945312 0.613281 -25.125 1.1875 -25.09375 C 1.757812 -25.0625 2.238281 -24.835938 2.625 -24.421875 C 3.007812 -24.003906 3.179688 -23.484375 3.140625 -22.859375 L 3.09375 -15.34375 Z M 11.078125 -14.65625 "/></g></g></g></svg>